<mxfile host="app.diagrams.net" agent="Mozilla/5.0 (Windows NT 10.0; Win64; x64) AppleWebKit/537.36 (KHTML, like Gecko) Chrome/131.0.0.0 Safari/537.36 Edg/131.0.0.0" version="25.0.1">
  <diagram name="PÃ¡gina-1" id="TirWjal-FcLyjEEZaEvg">
    <mxGraphModel dx="1459" dy="625" grid="0" gridSize="10" guides="1" tooltips="1" connect="1" arrows="1" fold="1" page="0" pageScale="1" pageWidth="827" pageHeight="1169" math="0" shadow="0">
      <root>
        <mxCell id="0" />
        <mxCell id="1" parent="0" />
        <mxCell id="RIVosARpYmE1e-0cyHc0-7" value="Inicio" style="strokeWidth=2;html=1;shape=mxgraph.flowchart.start_1;whiteSpace=wrap;" parent="1" vertex="1">
          <mxGeometry x="70" y="30" width="100" height="30" as="geometry" />
        </mxCell>
        <mxCell id="RIVosARpYmE1e-0cyHc0-8" value="&lt;div&gt;saldo&lt;/div&gt;" style="html=1;strokeWidth=2;shape=manualInput;whiteSpace=wrap;rounded=1;size=26;arcSize=11;" parent="1" vertex="1">
          <mxGeometry x="70" y="90" width="100" height="60" as="geometry" />
        </mxCell>
        <mxCell id="RIVosARpYmE1e-0cyHc0-9" value="&quot;Saldo inicial: &quot; + saldo" style="strokeWidth=2;html=1;shape=mxgraph.flowchart.display;whiteSpace=wrap;" parent="1" vertex="1">
          <mxGeometry x="245" y="90" width="100" height="60" as="geometry" />
        </mxCell>
        <mxCell id="RIVosARpYmE1e-0cyHc0-11" value="encerrar = &#39;n&#39;" style="strokeWidth=2;html=1;shape=mxgraph.flowchart.terminator;whiteSpace=wrap;" parent="1" vertex="1">
          <mxGeometry x="75" y="190" width="90" height="50" as="geometry" />
        </mxCell>
        <mxCell id="RIVosARpYmE1e-0cyHc0-12" value="encerrar = &#39;n&#39;" style="strokeWidth=2;html=1;shape=mxgraph.flowchart.decision;whiteSpace=wrap;" parent="1" vertex="1">
          <mxGeometry x="70" y="280" width="100" height="100" as="geometry" />
        </mxCell>
        <mxCell id="RIVosARpYmE1e-0cyHc0-14" value="tipo de entrada" style="html=1;strokeWidth=2;shape=manualInput;whiteSpace=wrap;rounded=1;size=26;arcSize=11;" parent="1" vertex="1">
          <mxGeometry x="70" y="410" width="100" height="60" as="geometry" />
        </mxCell>
        <mxCell id="RIVosARpYmE1e-0cyHc0-15" value="quantidade" style="html=1;strokeWidth=2;shape=manualInput;whiteSpace=wrap;rounded=1;size=26;arcSize=11;" parent="1" vertex="1">
          <mxGeometry x="70" y="500" width="100" height="60" as="geometry" />
        </mxCell>
        <mxCell id="RIVosARpYmE1e-0cyHc0-16" value="tipo entrada = 1" style="strokeWidth=2;html=1;shape=mxgraph.flowchart.decision;whiteSpace=wrap;" parent="1" vertex="1">
          <mxGeometry x="70" y="590" width="100" height="100" as="geometry" />
        </mxCell>
        <mxCell id="RIVosARpYmE1e-0cyHc0-20" value="saldo = saldo + quantidade" style="html=1;dashed=0;whiteSpace=wrap;" parent="1" vertex="1">
          <mxGeometry x="220" y="615" width="100" height="50" as="geometry" />
        </mxCell>
        <mxCell id="RIVosARpYmE1e-0cyHc0-21" value="&quot;Entrada: &quot; + quantidade" style="strokeWidth=2;html=1;shape=mxgraph.flowchart.display;whiteSpace=wrap;" parent="1" vertex="1">
          <mxGeometry x="375" y="610" width="100" height="60" as="geometry" />
        </mxCell>
        <mxCell id="RIVosARpYmE1e-0cyHc0-27" value="" style="edgeStyle=elbowEdgeStyle;elbow=horizontal;endArrow=classic;html=1;curved=0;rounded=0;endSize=8;startSize=8;entryX=0;entryY=0.5;entryDx=0;entryDy=0;entryPerimeter=0;fontSize=15;exitX=0;exitY=0.75;exitDx=0;exitDy=0;" parent="1" source="RIVosARpYmE1e-0cyHc0-71" target="RIVosARpYmE1e-0cyHc0-12" edge="1">
          <mxGeometry width="50" height="50" relative="1" as="geometry">
            <mxPoint x="30" y="666" as="sourcePoint" />
            <mxPoint x="20" y="110" as="targetPoint" />
            <Array as="points">
              <mxPoint x="30" y="210" />
              <mxPoint x="20" y="130" />
            </Array>
          </mxGeometry>
        </mxCell>
        <mxCell id="RIVosARpYmE1e-0cyHc0-47" value="" style="edgeStyle=segmentEdgeStyle;endArrow=classic;html=1;curved=0;rounded=0;endSize=8;startSize=8;entryX=1;entryY=0.5;entryDx=0;entryDy=0;entryPerimeter=0;exitX=0.59;exitY=1;exitDx=0;exitDy=0;exitPerimeter=0;" parent="1" source="RIVosARpYmE1e-0cyHc0-9" target="RIVosARpYmE1e-0cyHc0-11" edge="1">
          <mxGeometry width="50" height="50" relative="1" as="geometry">
            <mxPoint x="310" y="213" as="sourcePoint" />
            <mxPoint x="324" y="163" as="targetPoint" />
            <Array as="points">
              <mxPoint x="304" y="215" />
            </Array>
          </mxGeometry>
        </mxCell>
        <mxCell id="RIVosARpYmE1e-0cyHc0-48" value="" style="edgeStyle=elbowEdgeStyle;elbow=horizontal;endArrow=classic;html=1;curved=0;rounded=0;endSize=8;startSize=8;exitX=1;exitY=0.5;exitDx=0;exitDy=0;entryX=0;entryY=0.5;entryDx=0;entryDy=0;entryPerimeter=0;" parent="1" source="RIVosARpYmE1e-0cyHc0-8" target="RIVosARpYmE1e-0cyHc0-9" edge="1">
          <mxGeometry width="50" height="50" relative="1" as="geometry">
            <mxPoint x="186" y="125" as="sourcePoint" />
            <mxPoint x="236" y="75" as="targetPoint" />
          </mxGeometry>
        </mxCell>
        <mxCell id="RIVosARpYmE1e-0cyHc0-49" value="" style="edgeStyle=segmentEdgeStyle;endArrow=classic;html=1;curved=0;rounded=0;endSize=8;startSize=8;exitX=0.5;exitY=1;exitDx=0;exitDy=0;exitPerimeter=0;entryX=0.487;entryY=0.247;entryDx=0;entryDy=0;entryPerimeter=0;" parent="1" source="RIVosARpYmE1e-0cyHc0-7" target="RIVosARpYmE1e-0cyHc0-8" edge="1">
          <mxGeometry width="50" height="50" relative="1" as="geometry">
            <mxPoint x="104" y="87" as="sourcePoint" />
            <mxPoint x="121" y="108" as="targetPoint" />
          </mxGeometry>
        </mxCell>
        <mxCell id="RIVosARpYmE1e-0cyHc0-52" value="" style="edgeStyle=segmentEdgeStyle;endArrow=classic;html=1;curved=0;rounded=0;endSize=8;startSize=8;exitX=0.5;exitY=1;exitDx=0;exitDy=0;entryX=0.5;entryY=0;entryDx=0;entryDy=0;entryPerimeter=0;exitPerimeter=0;" parent="1" source="RIVosARpYmE1e-0cyHc0-11" target="RIVosARpYmE1e-0cyHc0-12" edge="1">
          <mxGeometry width="50" height="50" relative="1" as="geometry">
            <mxPoint x="11" y="204" as="sourcePoint" />
            <mxPoint x="61" y="154" as="targetPoint" />
          </mxGeometry>
        </mxCell>
        <mxCell id="RIVosARpYmE1e-0cyHc0-53" value="" style="edgeStyle=elbowEdgeStyle;elbow=horizontal;endArrow=classic;html=1;curved=0;rounded=0;endSize=8;startSize=8;exitX=1;exitY=0.5;exitDx=0;exitDy=0;exitPerimeter=0;entryX=1;entryY=0.5;entryDx=0;entryDy=0;entryPerimeter=0;" parent="1" target="RIVosARpYmE1e-0cyHc0-72" edge="1">
          <mxGeometry width="50" height="50" relative="1" as="geometry">
            <mxPoint x="170" y="329" as="sourcePoint" />
            <mxPoint x="596" y="1168" as="targetPoint" />
            <Array as="points">
              <mxPoint x="599" y="327" />
            </Array>
          </mxGeometry>
        </mxCell>
        <mxCell id="RIVosARpYmE1e-0cyHc0-54" value="" style="edgeStyle=segmentEdgeStyle;endArrow=classic;html=1;curved=0;rounded=0;endSize=8;startSize=8;exitX=0.5;exitY=1;exitDx=0;exitDy=0;exitPerimeter=0;entryX=0.502;entryY=0.174;entryDx=0;entryDy=0;entryPerimeter=0;" parent="1" source="RIVosARpYmE1e-0cyHc0-12" target="RIVosARpYmE1e-0cyHc0-14" edge="1">
          <mxGeometry width="50" height="50" relative="1" as="geometry">
            <mxPoint x="295" y="486" as="sourcePoint" />
            <mxPoint x="345" y="436" as="targetPoint" />
          </mxGeometry>
        </mxCell>
        <mxCell id="RIVosARpYmE1e-0cyHc0-55" value="" style="edgeStyle=segmentEdgeStyle;endArrow=classic;html=1;curved=0;rounded=0;endSize=8;startSize=8;exitX=0.5;exitY=1;exitDx=0;exitDy=0;" parent="1" source="RIVosARpYmE1e-0cyHc0-14" edge="1">
          <mxGeometry width="50" height="50" relative="1" as="geometry">
            <mxPoint x="295" y="486" as="sourcePoint" />
            <mxPoint x="119" y="509" as="targetPoint" />
          </mxGeometry>
        </mxCell>
        <mxCell id="RIVosARpYmE1e-0cyHc0-56" value="" style="edgeStyle=segmentEdgeStyle;endArrow=classic;html=1;curved=0;rounded=0;endSize=8;startSize=8;exitX=0.5;exitY=1;exitDx=0;exitDy=0;entryX=0.5;entryY=0;entryDx=0;entryDy=0;entryPerimeter=0;" parent="1" source="RIVosARpYmE1e-0cyHc0-15" target="RIVosARpYmE1e-0cyHc0-16" edge="1">
          <mxGeometry width="50" height="50" relative="1" as="geometry">
            <mxPoint x="295" y="486" as="sourcePoint" />
            <mxPoint x="120" y="584" as="targetPoint" />
          </mxGeometry>
        </mxCell>
        <mxCell id="RIVosARpYmE1e-0cyHc0-57" value="" style="edgeStyle=elbowEdgeStyle;elbow=vertical;endArrow=classic;html=1;curved=0;rounded=0;endSize=8;startSize=8;exitX=1;exitY=0.5;exitDx=0;exitDy=0;exitPerimeter=0;entryX=0;entryY=0.5;entryDx=0;entryDy=0;" parent="1" source="RIVosARpYmE1e-0cyHc0-16" target="RIVosARpYmE1e-0cyHc0-20" edge="1">
          <mxGeometry width="50" height="50" relative="1" as="geometry">
            <mxPoint x="295" y="668" as="sourcePoint" />
            <mxPoint x="345" y="618" as="targetPoint" />
          </mxGeometry>
        </mxCell>
        <mxCell id="RIVosARpYmE1e-0cyHc0-58" value="" style="edgeStyle=elbowEdgeStyle;elbow=vertical;endArrow=classic;html=1;curved=0;rounded=0;endSize=8;startSize=8;exitX=1;exitY=0.5;exitDx=0;exitDy=0;entryX=0;entryY=0.5;entryDx=0;entryDy=0;entryPerimeter=0;" parent="1" source="RIVosARpYmE1e-0cyHc0-20" target="RIVosARpYmE1e-0cyHc0-21" edge="1">
          <mxGeometry width="50" height="50" relative="1" as="geometry">
            <mxPoint x="295" y="577" as="sourcePoint" />
            <mxPoint x="345" y="527" as="targetPoint" />
          </mxGeometry>
        </mxCell>
        <mxCell id="RIVosARpYmE1e-0cyHc0-59" value="" style="edgeStyle=segmentEdgeStyle;endArrow=classic;html=1;curved=0;rounded=0;endSize=8;startSize=8;exitX=0.5;exitY=1;exitDx=0;exitDy=0;exitPerimeter=0;" parent="1" source="RIVosARpYmE1e-0cyHc0-21" edge="1">
          <mxGeometry width="50" height="50" relative="1" as="geometry">
            <mxPoint x="295" y="577" as="sourcePoint" />
            <mxPoint x="147" y="714" as="targetPoint" />
            <Array as="points">
              <mxPoint x="425" y="714" />
            </Array>
          </mxGeometry>
        </mxCell>
        <mxCell id="RIVosARpYmE1e-0cyHc0-60" value="" style="edgeStyle=segmentEdgeStyle;endArrow=classic;html=1;curved=0;rounded=0;endSize=8;startSize=8;exitX=0.5;exitY=1;exitDx=0;exitDy=0;exitPerimeter=0;entryX=0.5;entryY=0;entryDx=0;entryDy=0;entryPerimeter=0;" parent="1" source="RIVosARpYmE1e-0cyHc0-16" target="RIVosARpYmE1e-0cyHc0-66" edge="1">
          <mxGeometry width="50" height="50" relative="1" as="geometry">
            <mxPoint x="295" y="668" as="sourcePoint" />
            <mxPoint x="120" y="748" as="targetPoint" />
          </mxGeometry>
        </mxCell>
        <mxCell id="RIVosARpYmE1e-0cyHc0-62" value="&lt;b&gt;&lt;font style=&quot;font-size: 24px;&quot;&gt;F&lt;/font&gt;&lt;/b&gt;" style="text;html=1;align=center;verticalAlign=middle;resizable=0;points=[];autosize=1;strokeColor=none;fillColor=none;" parent="1" vertex="1">
          <mxGeometry x="338" y="272" width="33" height="41" as="geometry" />
        </mxCell>
        <mxCell id="RIVosARpYmE1e-0cyHc0-63" value="&lt;font style=&quot;font-size: 24px;&quot;&gt;&lt;b&gt;V&lt;/b&gt;&lt;/font&gt;" style="text;html=1;align=center;verticalAlign=middle;resizable=0;points=[];autosize=1;strokeColor=none;fillColor=none;" parent="1" vertex="1">
          <mxGeometry x="60" y="365" width="34" height="41" as="geometry" />
        </mxCell>
        <mxCell id="RIVosARpYmE1e-0cyHc0-64" value="&lt;font style=&quot;font-size: 24px;&quot;&gt;&lt;b&gt;V&lt;/b&gt;&lt;/font&gt;" style="text;html=1;align=center;verticalAlign=middle;resizable=0;points=[];autosize=1;strokeColor=none;fillColor=none;" parent="1" vertex="1">
          <mxGeometry x="175" y="585" width="34" height="41" as="geometry" />
        </mxCell>
        <mxCell id="RIVosARpYmE1e-0cyHc0-65" value="&lt;b&gt;&lt;font style=&quot;font-size: 24px;&quot;&gt;F&lt;/font&gt;&lt;/b&gt;" style="text;html=1;align=center;verticalAlign=middle;resizable=0;points=[];autosize=1;strokeColor=none;fillColor=none;" parent="1" vertex="1">
          <mxGeometry x="70" y="670" width="33" height="41" as="geometry" />
        </mxCell>
        <mxCell id="RIVosARpYmE1e-0cyHc0-66" value="tipo entrada = 2" style="strokeWidth=2;html=1;shape=mxgraph.flowchart.decision;whiteSpace=wrap;" parent="1" vertex="1">
          <mxGeometry x="70" y="720" width="100" height="100" as="geometry" />
        </mxCell>
        <mxCell id="RIVosARpYmE1e-0cyHc0-68" value="" style="edgeStyle=elbowEdgeStyle;elbow=horizontal;endArrow=classic;html=1;curved=0;rounded=0;endSize=8;startSize=8;exitX=0.5;exitY=1;exitDx=0;exitDy=0;exitPerimeter=0;entryX=0.5;entryY=0;entryDx=0;entryDy=0;entryPerimeter=0;" parent="1" source="RIVosARpYmE1e-0cyHc0-66" target="RIVosARpYmE1e-0cyHc0-69" edge="1">
          <mxGeometry width="50" height="50" relative="1" as="geometry">
            <mxPoint x="103" y="919" as="sourcePoint" />
            <mxPoint x="131" y="950" as="targetPoint" />
            <Array as="points">
              <mxPoint x="120" y="927" />
            </Array>
          </mxGeometry>
        </mxCell>
        <mxCell id="RIVosARpYmE1e-0cyHc0-69" value="saldo" style="strokeWidth=2;html=1;shape=mxgraph.flowchart.display;whiteSpace=wrap;" parent="1" vertex="1">
          <mxGeometry x="70" y="943" width="100" height="60" as="geometry" />
        </mxCell>
        <mxCell id="RIVosARpYmE1e-0cyHc0-71" value="encerrar ? (s/n)" style="html=1;strokeWidth=2;shape=manualInput;whiteSpace=wrap;rounded=1;size=26;arcSize=11;" parent="1" vertex="1">
          <mxGeometry x="70" y="1031" width="100" height="68" as="geometry" />
        </mxCell>
        <mxCell id="RIVosARpYmE1e-0cyHc0-72" value="&quot;Sistema Encerrado&quot;" style="strokeWidth=2;html=1;shape=mxgraph.flowchart.display;whiteSpace=wrap;" parent="1" vertex="1">
          <mxGeometry x="75" y="1127" width="100" height="60" as="geometry" />
        </mxCell>
        <mxCell id="RIVosARpYmE1e-0cyHc0-73" value="fim" style="html=1;dashed=0;whiteSpace=wrap;shape=mxgraph.dfd.start" parent="1" vertex="1">
          <mxGeometry x="80" y="1235" width="80" height="30" as="geometry" />
        </mxCell>
        <mxCell id="RIVosARpYmE1e-0cyHc0-74" value="" style="edgeStyle=segmentEdgeStyle;endArrow=classic;html=1;curved=0;rounded=0;endSize=8;startSize=8;exitX=0.5;exitY=1;exitDx=0;exitDy=0;exitPerimeter=0;entryX=0.5;entryY=0.5;entryDx=0;entryDy=-15;entryPerimeter=0;" parent="1" source="RIVosARpYmE1e-0cyHc0-72" target="RIVosARpYmE1e-0cyHc0-73" edge="1">
          <mxGeometry width="50" height="50" relative="1" as="geometry">
            <mxPoint x="221" y="1226" as="sourcePoint" />
            <mxPoint x="271" y="1176" as="targetPoint" />
          </mxGeometry>
        </mxCell>
        <mxCell id="RIVosARpYmE1e-0cyHc0-75" value="" style="edgeStyle=segmentEdgeStyle;endArrow=classic;html=1;curved=0;rounded=0;endSize=8;startSize=8;exitX=1;exitY=0.5;exitDx=0;exitDy=0;exitPerimeter=0;" parent="1" source="RIVosARpYmE1e-0cyHc0-66" target="RIVosARpYmE1e-0cyHc0-76" edge="1">
          <mxGeometry width="50" height="50" relative="1" as="geometry">
            <mxPoint x="285" y="805" as="sourcePoint" />
            <mxPoint x="271" y="772" as="targetPoint" />
            <Array as="points" />
          </mxGeometry>
        </mxCell>
        <mxCell id="RIVosARpYmE1e-0cyHc0-76" value="saldo &amp;gt;= quantidade" style="strokeWidth=2;html=1;shape=mxgraph.flowchart.decision;whiteSpace=wrap;" parent="1" vertex="1">
          <mxGeometry x="220" y="720" width="100" height="100" as="geometry" />
        </mxCell>
        <mxCell id="RIVosARpYmE1e-0cyHc0-77" value="&lt;font style=&quot;font-size: 24px;&quot;&gt;&lt;b&gt;V&lt;/b&gt;&lt;/font&gt;" style="text;html=1;align=center;verticalAlign=middle;resizable=0;points=[];autosize=1;strokeColor=none;fillColor=none;" parent="1" vertex="1">
          <mxGeometry x="175" y="720" width="34" height="41" as="geometry" />
        </mxCell>
        <mxCell id="RIVosARpYmE1e-0cyHc0-78" value="&lt;font style=&quot;font-size: 24px;&quot;&gt;&lt;b&gt;V&lt;/b&gt;&lt;/font&gt;" style="text;html=1;align=center;verticalAlign=middle;resizable=0;points=[];autosize=1;strokeColor=none;fillColor=none;" parent="1" vertex="1">
          <mxGeometry x="331" y="720" width="34" height="41" as="geometry" />
        </mxCell>
        <mxCell id="RIVosARpYmE1e-0cyHc0-79" value="saldo = saldo - quantidade" style="html=1;dashed=0;whiteSpace=wrap;" parent="1" vertex="1">
          <mxGeometry x="375" y="750" width="100" height="50" as="geometry" />
        </mxCell>
        <mxCell id="RIVosARpYmE1e-0cyHc0-80" value="" style="edgeStyle=segmentEdgeStyle;endArrow=classic;html=1;curved=0;rounded=0;endSize=8;startSize=8;exitX=1;exitY=0.5;exitDx=0;exitDy=0;exitPerimeter=0;entryX=0;entryY=0.4;entryDx=0;entryDy=0;entryPerimeter=0;" parent="1" source="RIVosARpYmE1e-0cyHc0-76" target="RIVosARpYmE1e-0cyHc0-79" edge="1">
          <mxGeometry width="50" height="50" relative="1" as="geometry">
            <mxPoint x="302" y="785" as="sourcePoint" />
            <mxPoint x="352" y="735" as="targetPoint" />
          </mxGeometry>
        </mxCell>
        <mxCell id="RIVosARpYmE1e-0cyHc0-81" value="" style="edgeStyle=segmentEdgeStyle;endArrow=classic;html=1;curved=0;rounded=0;endSize=8;startSize=8;exitX=0.54;exitY=1;exitDx=0;exitDy=0;exitPerimeter=0;entryX=0.544;entryY=0.002;entryDx=0;entryDy=0;entryPerimeter=0;" parent="1" source="RIVosARpYmE1e-0cyHc0-79" target="RIVosARpYmE1e-0cyHc0-82" edge="1">
          <mxGeometry width="50" height="50" relative="1" as="geometry">
            <mxPoint x="302" y="899" as="sourcePoint" />
            <mxPoint x="352" y="849" as="targetPoint" />
          </mxGeometry>
        </mxCell>
        <mxCell id="RIVosARpYmE1e-0cyHc0-82" value="&quot;Saida: &quot; + quantidade" style="strokeWidth=2;html=1;shape=mxgraph.flowchart.display;whiteSpace=wrap;" parent="1" vertex="1">
          <mxGeometry x="375" y="860" width="100" height="60" as="geometry" />
        </mxCell>
        <mxCell id="RIVosARpYmE1e-0cyHc0-83" value="&quot;Saldo insuficiente&quot;" style="strokeWidth=2;html=1;shape=mxgraph.flowchart.display;whiteSpace=wrap;" parent="1" vertex="1">
          <mxGeometry x="220" y="860" width="100" height="60" as="geometry" />
        </mxCell>
        <mxCell id="RIVosARpYmE1e-0cyHc0-84" value="" style="edgeStyle=segmentEdgeStyle;endArrow=classic;html=1;curved=0;rounded=0;endSize=8;startSize=8;exitX=0.5;exitY=1;exitDx=0;exitDy=0;exitPerimeter=0;entryX=0.5;entryY=0;entryDx=0;entryDy=0;entryPerimeter=0;" parent="1" source="RIVosARpYmE1e-0cyHc0-76" target="RIVosARpYmE1e-0cyHc0-83" edge="1">
          <mxGeometry width="50" height="50" relative="1" as="geometry">
            <mxPoint x="142" y="865" as="sourcePoint" />
            <mxPoint x="197" y="835" as="targetPoint" />
          </mxGeometry>
        </mxCell>
        <mxCell id="RIVosARpYmE1e-0cyHc0-85" value="" style="edgeStyle=segmentEdgeStyle;endArrow=classic;html=1;curved=0;rounded=0;endSize=8;startSize=8;" parent="1" source="RIVosARpYmE1e-0cyHc0-83" edge="1">
          <mxGeometry width="50" height="50" relative="1" as="geometry">
            <mxPoint x="302" y="899" as="sourcePoint" />
            <mxPoint x="124" y="891" as="targetPoint" />
            <Array as="points">
              <mxPoint x="124" y="890" />
            </Array>
          </mxGeometry>
        </mxCell>
        <mxCell id="RIVosARpYmE1e-0cyHc0-86" value="" style="edgeStyle=segmentEdgeStyle;endArrow=classic;html=1;curved=0;rounded=0;endSize=8;startSize=8;exitX=0.586;exitY=1.01;exitDx=0;exitDy=0;exitPerimeter=0;" parent="1" source="RIVosARpYmE1e-0cyHc0-82" edge="1">
          <mxGeometry width="50" height="50" relative="1" as="geometry">
            <mxPoint x="266" y="903" as="sourcePoint" />
            <mxPoint x="121" y="927" as="targetPoint" />
            <Array as="points">
              <mxPoint x="434" y="927" />
              <mxPoint x="127" y="927" />
            </Array>
          </mxGeometry>
        </mxCell>
        <mxCell id="RIVosARpYmE1e-0cyHc0-87" value="" style="edgeStyle=segmentEdgeStyle;endArrow=classic;html=1;curved=0;rounded=0;endSize=8;startSize=8;exitX=0.5;exitY=1;exitDx=0;exitDy=0;exitPerimeter=0;entryX=0.507;entryY=0.199;entryDx=0;entryDy=0;entryPerimeter=0;" parent="1" source="RIVosARpYmE1e-0cyHc0-69" target="RIVosARpYmE1e-0cyHc0-71" edge="1">
          <mxGeometry width="50" height="50" relative="1" as="geometry">
            <mxPoint x="321" y="1123" as="sourcePoint" />
            <mxPoint x="371" y="1073" as="targetPoint" />
          </mxGeometry>
        </mxCell>
        <mxCell id="AbOmE4fF7r97lmA9U8LJ-1" value="&lt;b&gt;&lt;font style=&quot;font-size: 24px;&quot;&gt;F&lt;/font&gt;&lt;/b&gt;" style="text;html=1;align=center;verticalAlign=middle;resizable=0;points=[];autosize=1;strokeColor=none;fillColor=none;" vertex="1" parent="1">
          <mxGeometry x="220" y="800" width="33" height="41" as="geometry" />
        </mxCell>
        <mxCell id="AbOmE4fF7r97lmA9U8LJ-2" value="&lt;b&gt;&lt;font style=&quot;font-size: 24px;&quot;&gt;F&lt;/font&gt;&lt;/b&gt;" style="text;html=1;align=center;verticalAlign=middle;resizable=0;points=[];autosize=1;strokeColor=none;fillColor=none;" vertex="1" parent="1">
          <mxGeometry x="75" y="820" width="33" height="41" as="geometry" />
        </mxCell>
      </root>
    </mxGraphModel>
  </diagram>
</mxfile>
